HIERARCHY
ROOT Hips
{
	OFFSET 0.000000 0.000000 0.000000
	CHANNELS 6 Xposition Yposition Zposition Zrotation Yrotation Xrotation
	JOINT LeftUpLeg
	{
		OFFSET 4.466820 0.000000 0.000000
		CHANNELS 3 Zrotation Yrotation Xrotation
		JOINT LeftLeg
		{
			OFFSET 0.000000 -17.031780 0.000000
			CHANNELS 3 Zrotation Yrotation Xrotation
			JOINT LeftFoot
			{
				OFFSET 0.000000 -15.721901 0.000000
				CHANNELS 3 Zrotation Yrotation Xrotation
				JOINT LeftToeBase
				{
					OFFSET 0.000000 -1.612808 6.019110
					CHANNELS 3 Zrotation Yrotation Xrotation
					End Site
					{
						OFFSET 0.000000 0.000000 2.952750
					}
				}
			}
		}
	}
	JOINT RightUpLeg
	{
		OFFSET -4.466820 0.000000 0.000000
		CHANNELS 3 Zrotation Yrotation Xrotation
		JOINT RightLeg
		{
			OFFSET 0.000000 -17.031780 0.000000
			CHANNELS 3 Zrotation Yrotation Xrotation
			JOINT RightFoot
			{
				OFFSET 0.000000 -15.721901 0.000000
				CHANNELS 3 Zrotation Yrotation Xrotation
				JOINT RightToeBase
				{
					OFFSET 0.000000 -1.612808 6.019110
					CHANNELS 3 Zrotation Yrotation Xrotation
					End Site
					{
						OFFSET 0.000000 0.000000 2.952750
					}
				}
			}
		}
	}
	JOINT Spine
	{
		OFFSET 0.000000 0.039370 0.000000
		CHANNELS 3 Zrotation Yrotation Xrotation
		JOINT Spine1
		{
			OFFSET 0.000000 6.636480 0.000000
			CHANNELS 3 Zrotation Yrotation Xrotation
			JOINT Neck
			{
				OFFSET 0.000000 10.893131 0.000000
				CHANNELS 3 Zrotation Yrotation Xrotation
				JOINT Head
				{
					OFFSET 0.000000 5.848410 0.000000
					CHANNELS 3 Zrotation Yrotation Xrotation
					End Site
					{
						OFFSET 0.000000 10.040617 0.000000
					}
				}
			}
			JOINT LeftShoulder
			{
				OFFSET 0.000000 10.893131 0.000000
				CHANNELS 3 Zrotation Yrotation Xrotation
				JOINT LeftArm
				{
					OFFSET 7.212660 -0.000031 0.000000
					CHANNELS 3 Zrotation Yrotation Xrotation
					JOINT LeftForeArm
					{
						OFFSET 9.648291 -0.000040 0.000000
						CHANNELS 3 Zrotation Yrotation Xrotation
						JOINT LeftHand
						{
							OFFSET 9.067930 -0.000031 0.000000
							CHANNELS 3 Zrotation Yrotation Xrotation
							JOINT LeftHandThumb
							{
								OFFSET 0.000000 0.000000 0.000000
								CHANNELS 3 Zrotation Yrotation Xrotation
								End Site
								{
									OFFSET 0.000000 0.000000 1.937000
								}
							}
							JOINT L_Wrist_End
							{
								OFFSET 7.136999 -0.000010 0.000000
								CHANNELS 3 Zrotation Yrotation Xrotation
								End Site
								{
									OFFSET 0.000000 0.100000 0.000000
								}
							}
						}
					}
				}
			}
			JOINT RightShoulder
			{
				OFFSET 0.000000 10.893131 0.000000
				CHANNELS 3 Zrotation Yrotation Xrotation
				JOINT RightArm
				{
					OFFSET -7.212660 -0.000031 0.000000
					CHANNELS 3 Zrotation Yrotation Xrotation
					JOINT RightForeArm
					{
						OFFSET -9.648291 -0.000040 0.000000
						CHANNELS 3 Zrotation Yrotation Xrotation
						JOINT RightHand
						{
							OFFSET -9.067930 -0.000031 0.000000
							CHANNELS 3 Zrotation Yrotation Xrotation
							JOINT RightHandThumb
							{
								OFFSET 0.000000 0.000000 0.000000
								CHANNELS 3 Zrotation Yrotation Xrotation
								End Site
								{
									OFFSET 0.000000 0.000000 1.937000
								}
							}
							JOINT R_Wrist_End
							{
								OFFSET -8.593691 -0.000019 0.000000
								CHANNELS 3 Zrotation Yrotation Xrotation
								End Site
								{
									OFFSET 0.000000 0.100000 0.000000
								}
							}
						}
					}
				}
			}
		}
	}
}
MOTION
Frames: 9
Frame Time: 0.008333
5.886500 34.544800 4.481200 -1.382308 3.589204 0.379772 1.747648 0.984626 12.556977 -0.000000 -0.000000 10.214801 -1.999999 6.022725 -14.034477 0.000000 0.000001 -11.651396 3.833891 -5.403077 -28.248554 -0.000000 -0.000000 29.640603 3.282244 -6.126589 0.439722 0.000000 -0.000000 -9.642099 -3.194544 -6.909782 -14.459304 5.380443 -1.162853 20.028387 12.207398 1.341961 23.046919 -14.914650 9.898813 -21.865795 18.129346 -17.068148 -6.038532 -30.929713 -43.335887 -0.174598 0.001952 -84.506003 -0.002188 -0.977878 -0.942871 7.121218 0.000000 -0.000002 0.000000 0.000000 -0.000001 0.000002 -6.563248 -0.848771 8.560379 53.274239 -6.218615 21.218466 0.001858 99.758697 0.001662 -12.675426 -34.758672 3.491114 -0.000004 0.000001 0.000001 -0.000002 -0.000002 -0.000000 
5.854100 34.507801 4.711600 -1.310350 3.628063 0.411110 1.779133 0.939353 12.528817 0.000000 -0.000000 11.003499 -2.430028 5.881095 -14.308982 0.000000 0.000000 -11.955600 4.074068 -5.631859 -27.932048 0.000000 0.000000 29.464295 2.545863 -7.268085 0.201597 -0.000000 -0.000000 -9.574299 -3.290502 -7.013278 -14.424149 5.501374 -1.194918 19.934056 12.062387 1.917230 23.102698 -14.662020 9.433284 -21.923251 18.055684 -17.348460 -6.566922 -30.859939 -43.234278 -0.593842 0.002089 -84.855299 -0.002333 -1.338848 -0.418555 6.942831 -0.000000 -0.000002 0.000000 0.000000 -0.000001 0.000001 -6.949802 -1.000679 8.736485 53.574457 -6.350430 21.224598 0.001281 99.275495 0.001085 -12.943900 -34.662223 3.430329 0.000002 0.000001 -0.000000 0.000003 0.000000 -0.000001 
5.807800 34.473701 4.961300 -1.338418 3.705030 0.322954 1.938516 0.845113 12.608394 0.000000 0.000000 11.850502 -2.700674 5.768374 -14.485897 -0.000000 -0.000000 -12.540000 4.422985 -5.894302 -27.389552 0.000000 0.000000 29.226601 1.944468 -8.275464 -0.044814 0.000000 -0.000000 -9.336497 -3.409446 -7.243680 -14.321115 5.664535 -1.331862 19.900369 11.953324 2.050765 22.958714 -14.774474 9.481716 -21.744266 18.104940 -17.196852 -6.779792 -31.362733 -43.573345 -0.822477 0.002089 -84.866098 -0.002328 -1.260647 -0.294842 7.401353 0.000000 0.000001 0.000000 0.000000 -0.000002 0.000000 -7.076333 -0.937046 8.724968 53.552846 -6.756711 21.376158 0.001932 98.871995 0.001744 -12.988249 -34.676594 3.051884 -0.000002 0.000001 -0.000003 0.000001 0.000000 -0.000003 
5.771300 34.437000 5.201200 -1.228720 3.647280 0.416240 1.899322 0.750210 12.463009 -0.000000 0.000000 12.808299 -3.177133 5.758441 -14.687161 -0.000000 0.000001 -12.975900 4.590089 -5.936850 -27.078321 -0.000000 -0.000000 29.120901 1.529794 -8.976394 -0.139048 -0.000000 0.000000 -9.400499 -3.430954 -7.261217 -14.346990 5.622404 -1.328494 19.791484 11.841615 2.278411 22.928388 -14.721119 9.297417 -21.770191 18.064372 -17.209340 -6.979550 -31.815940 -43.835789 -0.966174 0.002117 -84.935103 -0.002360 -1.156048 -0.097277 7.585343 0.000000 0.000001 0.000001 0.000000 -0.000001 0.000000 -7.262642 -0.982479 8.879783 53.845701 -7.063429 21.344667 0.002160 98.271198 0.001967 -13.157579 -34.825273 3.574815 -0.000002 -0.000002 0.000002 -0.000000 -0.000004 0.000002 
5.714100 34.409801 5.471900 -1.397902 3.710756 0.254191 2.211490 0.582573 12.527535 0.000000 0.000000 13.898000 -3.493579 5.671728 -14.882330 0.000000 -0.000001 -13.495600 5.030872 -6.049920 -26.372762 -0.000000 -0.000000 28.834801 -0.203761 -9.081630 0.365632 -0.000000 0.000000 -9.568400 -3.378595 -7.381774 -14.295997 5.754113 -1.447476 19.827464 11.665381 2.570750 22.897748 -14.627219 9.130160 -21.707557 17.981463 -17.235462 -6.869995 -32.374858 -44.020859 -1.273068 0.002219 -85.124798 -0.002457 -1.168227 0.119402 7.831100 0.000000 -0.000003 0.000001 0.000001 -0.000001 0.000001 -7.426346 -1.022815 8.944049 54.116787 -7.410386 21.610777 0.001649 97.465099 0.001455 -13.400962 -34.796433 3.725259 0.000001 0.000000 -0.000001 0.000003 -0.000003 -0.000002 
5.665600 34.376900 5.724500 -1.274077 3.651533 0.339495 2.173737 0.434391 12.308272 0.000000 0.000000 15.048696 -3.985485 5.593378 -14.933519 0.000000 -0.000000 -14.200498 5.177908 -6.004505 -26.031809 0.000000 -0.000000 28.787000 -1.860737 -8.947965 0.708253 -0.000000 -0.000001 -9.629197 -3.417259 -7.397480 -14.340206 5.682190 -1.437920 19.719238 11.558859 2.652654 22.792691 -14.621108 9.094581 -21.589285 17.862707 -17.208475 -6.949173 -33.236998 -44.227244 -1.047397 0.002239 -85.157303 -0.002484 -0.799533 0.261483 8.217529 -0.000000 0.000000 0.000000 -0.000002 -0.000000 0.000001 -7.486838 -1.052606 9.118070 54.461531 -7.724945 21.710202 0.002730 96.517895 0.002519 -13.297423 -34.668524 3.659685 -0.000000 0.000002 -0.000001 -0.000001 0.000003 -0.000001 
5.606500 34.349602 5.991600 -1.278869 3.736636 0.328271 2.299194 0.143859 12.087428 0.000000 -0.000000 16.395500 -4.500686 5.481436 -14.995127 0.000000 -0.000001 -14.844900 5.409987 -5.974011 -25.511371 -0.000000 0.000000 28.594502 -3.144156 -8.772365 0.862093 -0.000000 -0.000001 -9.427899 -3.388895 -7.492081 -14.367390 5.635930 -1.532644 19.687228 11.438467 2.813586 22.729188 -14.609857 9.009880 -21.542055 17.751440 -17.210718 -6.854049 -34.262951 -44.260664 -0.891321 0.002354 -85.414801 -0.002624 -0.587438 0.508849 8.456502 -0.000001 -0.000001 0.000000 -0.000002 -0.000002 0.000001 -7.580741 -1.224085 9.123774 54.889999 -7.923075 22.115649 0.002128 95.316601 0.001953 -13.425962 -34.699697 3.756647 0.000001 0.000001 -0.000001 -0.000000 0.000003 0.000001 
5.526500 34.326599 6.270800 -1.436989 3.642528 0.256495 2.670606 0.149708 11.932428 0.000000 0.000000 17.788999 -5.089696 5.164861 -14.965269 -0.000000 -0.000000 -15.921395 5.828124 -5.650950 -24.910526 -0.000000 -0.000000 28.277702 -5.415956 -8.729385 1.395850 0.000000 0.000000 -9.309296 -3.287800 -7.468558 -14.424560 5.677280 -1.553437 19.726450 11.299253 2.877116 22.660814 -14.659683 8.914212 -21.484515 17.529802 -17.173720 -6.780253 -35.484557 -44.274813 -0.512757 0.002435 -85.578097 -0.002671 -0.547973 0.578976 8.727243 -0.000001 0.000004 -0.000000 -0.000002 0.000002 0.000001 -7.598436 -1.298563 9.200318 55.409421 -8.281329 22.333851 0.004250 94.088697 0.004105 -13.420232 -34.570296 3.780146 -0.000001 0.000001 0.000001 -0.000000 0.000002 0.000003 
5.459000 34.306301 6.550100 -1.413406 3.595119 0.242404 2.775746 -0.077916 11.644161 -0.000000 -0.000000 19.322399 -5.752574 5.018479 -14.801664 0.000001 0.000001 -16.883895 5.877344 -5.078881 -24.466528 -0.000000 -0.000000 28.248097 -6.364497 -9.091198 1.629154 0.000000 0.000000 -9.222298 -3.264866 -7.484595 -14.469662 5.623180 -1.574087 19.677628 11.182751 2.958118 22.601157 -14.705966 8.816523 -21.415481 17.231270 -17.119024 -6.661835 -36.906316 -44.187328 0.039142 0.002642 -85.821894 -0.002857 -0.606706 0.852910 9.167301 0.000001 -0.000000 0.000001 0.000000 0.000000 0.000000 -7.569087 -1.389640 9.315042 55.955659 -8.532448 22.558057 0.004119 92.666099 0.003987 -13.567729 -34.579223 4.084738 -0.000003 -0.000003 0.000000 -0.000001 -0.000003 -0.000002 
